<svg xmlns="http://www.w3.org/2000/svg" viewBox="0 0 116 36" width="116" height="36">
	<style>
		tspan { white-space:pre }
		.shp0 { fill: #ffffff } 
	</style>
	<g id="Welcome">
		<path id="logo" fill-rule="evenodd" class="shp0" d="M16.76 35.99C6.72 36.32 -0.02 30.4 -0.02 20.04C-0.02 7.93 8.31 -0.43 20.68 -0.29C26.7 -0.22 30.87 1.76 32.72 3.02L29.37 10.65C27.87 9.92 25.05 9.41 22.67 9.41C16.56 9.41 13.57 13.38 13.4 18.5C13.23 23.79 16.5 27.3 21.34 27.76C26.13 28.22 29.56 27.12 31.65 26.2L33.52 12.99L43.76 12.99L41.94 25.83C41.77 26.97 42.49 27.9 43.55 27.9C44.57 27.9 45.54 26.97 45.71 25.83L47.53 12.99L57.78 12.99L55.79 27.26C55.55 29.01 56.15 30.11 59.89 28.59C59.76 27.79 59.69 26.95 59.69 26.08C59.69 18.33 64.64 12.44 70.82 12.44C73.28 12.44 74.93 13.5 76.16 15.2L77.68 4.14L87.93 4.14L84.67 27.43C84.46 29.05 85.18 30.26 89.17 28.18C89.08 27.5 89.03 26.8 89.03 26.08C89.03 18.5 93.98 12.44 100.17 12.44C102.62 12.44 104.27 13.5 105.5 15.2L105.8 12.99L116.05 12.99L114.01 27.43C113.8 29.09 114.82 29.38 116.39 29L116.02 33.39C113.84 35.11 111.69 35.99 109.57 35.99C106.43 35.99 104.44 34.55 103.77 32.47C101.99 34.59 99.74 35.99 96.53 35.99C94.08 35.99 92.16 34.82 90.88 32.93C89.08 33.96 85.07 36.06 80.22 35.99C77.09 35.95 75.1 34.55 74.42 32.47C72.64 34.55 70.48 35.99 67.18 35.99C64.78 35.99 62.89 34.86 61.61 33.03C56.52 35.38 53.41 35.99 51.34 35.99C48.13 35.99 46.22 34.67 45.5 32.77C43.17 34.93 40.72 35.99 37.92 35.99C34.74 35.99 32.45 34.33 31.61 31.78C26.82 34.32 22.44 35.8 16.76 35.99ZM75.78 23.58C75.78 21.8 74.8 20.4 73.28 20.4C71.29 20.4 69.72 22.44 69.72 24.77C69.72 26.54 70.65 27.94 72.22 27.94C74.17 27.94 75.78 25.91 75.78 23.58ZM105.12 23.58C105.12 21.8 104.15 20.4 102.62 20.4C100.63 20.4 99.07 22.44 99.07 24.77C99.07 26.54 100 27.94 101.56 27.94C103.51 27.94 105.12 25.91 105.12 23.58Z" />
	</g>
</svg>